<svg width="38" height="38" viewBox="0 0 38 38" fill="none" xmlns="http://www.w3.org/2000/svg">
<path d="M3.99994 30.2498C3.99994 28.2606 4.79012 26.353 6.19664 24.9465C7.60317 23.5399 9.51082 22.7498 11.4999 22.7498H26.5C28.4891 22.7498 30.3968 23.5399 31.8033 24.9465C33.2098 26.353 34 28.2606 34 30.2498C34 31.2443 33.6049 32.1982 32.9016 32.9014C32.1984 33.6047 31.2445 33.9998 30.25 33.9998H7.74994C6.75538 33.9998 5.80155 33.6047 5.09829 32.9014C4.39503 32.1982 3.99994 31.2443 3.99994 30.2498Z" stroke="white" stroke-width="3" stroke-linejoin="round"/>
<path d="M19 15.25C22.1066 15.25 24.625 12.7316 24.625 9.62501C24.625 6.5184 22.1066 4 19 4C15.8934 4 13.375 6.5184 13.375 9.62501C13.375 12.7316 15.8934 15.25 19 15.25Z" stroke="white" stroke-width="3"/>
</svg>
