<svg width="38" height="38" viewBox="0 0 38 38" fill="none" xmlns="http://www.w3.org/2000/svg">
<g clip-path="url(#clip0_2_156)">
<path d="M0 4.15625C0 1.862 1.862 0 4.15625 0H33.8438C36.138 0 38 1.862 38 4.15625V26.7188C38 27.8211 37.5621 28.8782 36.7827 29.6577C36.0032 30.4371 34.9461 30.875 33.8438 30.875H19.1425L13.0316 36.9859C12.5472 37.4684 11.9309 37.7968 11.2602 37.9295C10.5895 38.0623 9.89446 37.9935 9.26277 37.7319C8.63108 37.4703 8.09098 37.0276 7.71055 36.4594C7.33011 35.8913 7.12637 35.2233 7.125 34.5396V30.875H4.15625C3.05394 30.875 1.99679 30.4371 1.21734 29.6577C0.437889 28.8782 0 27.8211 0 26.7188L0 4.15625ZM4.15625 3.5625C3.99878 3.5625 3.84776 3.62506 3.73641 3.73641C3.62506 3.84776 3.5625 3.99878 3.5625 4.15625V26.7188C3.5625 27.0465 3.8285 27.3125 4.15625 27.3125H8.90625C9.37867 27.3125 9.83173 27.5002 10.1658 27.8342C10.4998 28.1683 10.6875 28.6213 10.6875 29.0938V34.295L17.1475 27.835C17.4812 27.5009 17.934 27.3129 18.4062 27.3125H33.8438C34.0012 27.3125 34.1522 27.2499 34.2636 27.1386C34.3749 27.0272 34.4375 26.8762 34.4375 26.7188V4.15625C34.4375 3.99878 34.3749 3.84776 34.2636 3.73641C34.1522 3.62506 34.0012 3.5625 33.8438 3.5625H4.15625ZM20.7812 8.90625V14.8438C20.7812 15.3162 20.5936 15.7692 20.2595 16.1033C19.9255 16.4373 19.4724 16.625 19 16.625C18.5276 16.625 18.0745 16.4373 17.7405 16.1033C17.4064 15.7692 17.2188 15.3162 17.2188 14.8438V8.90625C17.2188 8.43383 17.4064 7.98076 17.7405 7.64672C18.0745 7.31267 18.5276 7.125 19 7.125C19.4724 7.125 19.9255 7.31267 20.2595 7.64672C20.5936 7.98076 20.7812 8.43383 20.7812 8.90625ZM21.375 21.375C21.375 22.0049 21.1248 22.609 20.6794 23.0544C20.234 23.4998 19.6299 23.75 19 23.75C18.3701 23.75 17.766 23.4998 17.3206 23.0544C16.8752 22.609 16.625 22.0049 16.625 21.375C16.625 20.7451 16.8752 20.141 17.3206 19.6956C17.766 19.2502 18.3701 19 19 19C19.6299 19 20.234 19.2502 20.6794 19.6956C21.1248 20.141 21.375 20.7451 21.375 21.375Z" fill="white"/>
</g>
<defs>
<clipPath id="clip0_2_156">
<rect width="38" height="38" fill="white"/>
</clipPath>
</defs>
</svg>
