<svg width="38" height="38" viewBox="0 0 38 38" fill="none" xmlns="http://www.w3.org/2000/svg">
<path fill-rule="evenodd" clip-rule="evenodd" d="M14.1677 10.6875H23.8324C25.255 10.6874 26.4413 10.6874 27.383 10.814C28.3771 10.9476 29.2745 11.2416 29.9955 11.9628C30.5698 12.537 30.8765 13.2271 31.0442 13.9974C31.1837 14.6382 30.7774 15.2708 30.1365 15.4103C29.4957 15.5498 28.8631 15.1434 28.7236 14.5025C28.6244 14.0465 28.4855 13.8115 28.3163 13.6421C28.1099 13.4358 27.7972 13.266 27.0665 13.1678C26.3018 13.065 25.2764 13.0625 23.7501 13.0625H14.2501C12.7237 13.0625 11.6984 13.065 10.9336 13.1678C10.203 13.266 9.89028 13.4358 9.68394 13.6421C9.4776 13.8485 9.30783 14.1612 9.2096 14.8918C9.10678 15.6566 9.10425 16.682 9.10425 18.2083V19.7916C9.10425 21.318 9.10678 22.3433 9.2096 23.1081C9.30783 23.8388 9.4776 24.1515 9.68394 24.3578C9.89028 24.5641 10.203 24.7338 10.9336 24.8322C11.6984 24.9349 12.7237 24.9375 14.2501 24.9375H23.7501C25.2764 24.9375 26.3018 24.9349 27.0665 24.8322C27.7972 24.7338 28.1099 24.5641 28.3163 24.3578C28.505 24.1689 28.6608 23.8936 28.7615 23.3006C28.8679 22.6733 28.8915 21.8284 28.8951 20.5798C28.8972 19.924 29.4303 19.3939 30.0861 19.3958C30.7419 19.3977 31.272 19.931 31.2701 20.5868C31.2666 21.8036 31.2476 22.8451 31.1029 23.698C30.9524 24.5855 30.6485 25.3843 29.9955 26.0371C29.2745 26.7583 28.3771 27.0523 27.383 27.1859C26.4413 27.3126 25.255 27.3125 23.8324 27.3125H14.1678C12.7452 27.3125 11.5589 27.3126 10.6172 27.1859C9.62316 27.0523 8.72572 26.7583 8.00456 26.0371C7.2834 25.316 6.98942 24.4186 6.85577 23.4246C6.72917 22.4828 6.7292 21.2966 6.72925 19.874V18.126C6.7292 16.7033 6.72917 15.5171 6.85577 14.5754C6.98942 13.5814 7.2834 12.6839 8.00456 11.9628C8.72572 11.2416 9.62316 10.9476 10.6172 10.814C11.5589 10.6874 12.7452 10.6874 14.1677 10.6875ZM7.91675 1.97913C8.5726 1.97913 9.10425 2.51079 9.10425 3.16663V3.95829C9.10425 5.48858 10.3448 6.72913 11.8751 6.72913H26.1251C27.6554 6.72913 28.8959 5.48858 28.8959 3.95829V3.16663C28.8959 2.51079 29.4276 1.97913 30.0834 1.97913C30.7392 1.97913 31.2709 2.51079 31.2709 3.16663V3.95829C31.2709 6.80026 28.967 9.10413 26.1251 9.10413H11.8751C9.03313 9.10413 6.72925 6.80026 6.72925 3.95829V3.16663C6.72925 2.51079 7.26092 1.97913 7.91675 1.97913ZM6.72925 34.0416C6.72925 31.1997 9.03313 28.8958 11.8751 28.8958H26.1251C28.967 28.8958 31.2709 31.1997 31.2709 34.0416V34.8333C31.2709 35.4891 30.7392 36.0208 30.0834 36.0208C29.4276 36.0208 28.8959 35.4891 28.8959 34.8333V34.0416C28.8959 32.5113 27.6554 31.2708 26.1251 31.2708H11.8751C10.3448 31.2708 9.10425 32.5113 9.10425 34.0416V34.8333C9.10425 35.4891 8.5726 36.0208 7.91675 36.0208C7.26092 36.0208 6.72925 35.4891 6.72925 34.8333V34.0416Z" fill="white"/>
</svg>
